<svg viewBox="0 0 40 40" fill="none" xmlns="http://www.w3.org/2000/svg" width="40" height="40">
  <rect id="card-editor" x="0.0" y="0.0" width="40" height="40" fill="rgb(255,255,255)" fill-opacity="0.0" />
  <path id="card-editor-path" d="M25 3L34 12L26.9592 12C25.8772 12 25 11.1228 25 10.0408L25 3L25 3Z"
    fill="rgb(188,222,255)" fill-rule="evenodd" />
  <path id="card-editor-path-2"
    d="M25.0181 3L25.0037 10.1305C25.0015 11.1428 25.8184 11.9652 26.8283 11.9674L34 11.9674L34 33.7924C34 35.5639 32.5639 37 30.8 37L9.2 37C7.43269 37 6 35.5639 6 33.7924L6 6.20755C6 4.43607 7.43269 3 9.2 3L25.0181 3L25.0181 3Z"
    fill="rgb(34,144,255)" fill-rule="evenodd" />
  <path id="card-editor-path-3" d="M12 24L26 24" stroke="rgb(255,255,255)" stroke-width="1.5" stroke-linejoin="round" />
  <path id="card-editor-path-3" d="M12 19L26 19" stroke="rgb(255,255,255)" stroke-width="1.5" stroke-linejoin="round" />
  <path id="card-editor-path-4" d="M12 29L21 29" stroke="rgb(255,255,255)" stroke-width="1.5" stroke-linejoin="round" />
</svg>