<svg data-v-d3e79a02="" xmlns="http://www.w3.org/2000/svg" xmlns:xlink="http://www.w3.org/1999/xlink" width="20" height="20" viewBox="0 0 20 20" fill="none"><defs><clipPath id="clip98_50863"><rect id="收起" width="20.000000" height="20.000000" fill="white" fill-opacity="0"></rect></clipPath></defs><g clip-path="url(#clip98_50863)"><path id="矢量 80" d="M5 1.87C3.27 1.87 1.87 3.27 1.87 5L1.87 15C1.87 16.72 3.27 18.12 5 18.12L15 18.12C16.72 18.12 18.12 16.72 18.12 15L18.12 5C18.12 3.27 16.72 1.87 15 1.87L5 1.87ZM5 3.12L6.87 3.12L6.87 16.87L5 16.87C3.96 16.87 3.12 16.03 3.12 15L3.12 5C3.12 3.96 3.96 3.12 5 3.12ZM15 16.87L8.12 16.87L8.12 3.12L15 3.12C16.03 3.12 16.87 3.96 16.87 5L16.87 15C16.87 16.03 16.03 16.87 15 16.87ZM14.44 7.05C14.19 6.81 13.8 6.81 13.55 7.05L11.14 9.46C11.07 9.54 11.01 9.62 10.98 9.71C10.94 9.8 10.92 9.89 10.92 10Q10.92 10.15 10.98 10.28Q10.98 10.28 10.98 10.28C11.01 10.37 11.07 10.45 11.14 10.53L13.55 12.94C13.8 13.18 14.19 13.18 14.44 12.94C14.68 12.69 14.68 12.3 14.44 12.05L12.38 10L14.44 7.94C14.68 7.69 14.68 7.3 14.44 7.05Z" fill="currentColor" fill-opacity="1.000000" fill-rule="evenodd"></path></g></svg>