<svg data-v-d3e79a02="" xmlns="http://www.w3.org/2000/svg" xmlns:xlink="http://www.w3.org/1999/xlink" width="20" height="20" viewBox="0 0 20 20" fill="none"><defs><clipPath id="clip98_51313"><rect id="新建对话" width="20.000000" height="20.000000" fill="white" fill-opacity="0"></rect></clipPath></defs><g clip-path="url(#clip98_51313)"><path id="矢量 77" d="M1.37 9.77C1.37 9.14 1.43 8.53 1.56 7.93C1.67 7.44 1.82 6.96 2.03 6.5C2.22 6.02 2.47 5.57 2.75 5.14C3.05 4.68 3.42 4.23 3.83 3.83C4.23 3.42 4.68 3.05 5.13 2.75C5.57 2.47 6.02 2.22 6.5 2.03C6.96 1.82 7.44 1.67 7.93 1.56C8.53 1.43 9.14 1.37 9.77 1.37C10.39 1.37 11 1.43 11.6 1.56C12.07 1.67 12.57 1.82 13.03 2.03C13.51 2.22 13.96 2.47 14.38 2.75C14.85 3.05 15.3 3.42 15.7 3.83C16.11 4.23 16.48 4.68 16.78 5.14C17.06 5.57 17.31 6.02 17.5 6.5C17.71 6.96 17.85 7.44 17.96 7.93C18.1 8.53 18.17 9.14 18.17 9.77C18.17 10.39 18.1 11 17.96 11.6C17.85 12.08 17.71 12.57 17.5 13.03C17.31 13.51 17.06 13.96 16.78 14.38C16.48 14.85 16.11 15.3 15.7 15.7C14.93 16.48 14.04 17.07 13.03 17.5C12.57 17.71 12.07 17.85 11.6 17.96C11 18.1 10.39 18.17 9.77 18.17C9.64 18.17 9.5 18.16 9.36 18.16L3.21 18.16C3.11 18.16 3.01 18.15 2.93 18.12C2.86 18.1 2.77 18.06 2.71 18.01C2.56 17.93 2.44 17.82 2.36 17.67C2.28 17.52 2.23 17.37 2.23 17.2C2.22 17.01 2.27 16.86 2.36 16.7L3.28 15.1C3.03 14.8 2.79 14.48 2.58 14.14C2.34 13.74 2.14 13.31 1.95 12.86C1.78 12.42 1.65 11.99 1.55 11.51C1.43 10.95 1.37 10.37 1.37 9.77ZM2.75 11.29C2.83 11.68 2.94 12.05 3.09 12.41C3.23 12.79 3.42 13.15 3.62 13.5C3.87 13.9 4.15 14.27 4.47 14.63C4.67 14.85 4.71 15.08 4.55 15.33L3.62 16.94L9.38 16.94C9.5 16.94 9.65 16.95 9.77 16.95C10.29 16.95 10.84 16.89 11.35 16.77C11.77 16.67 12.17 16.55 12.56 16.38C12.96 16.21 13.34 16.02 13.7 15.77C14.1 15.5 14.49 15.2 14.85 14.85C15.2 14.49 15.5 14.1 15.77 13.7C16.02 13.34 16.21 12.96 16.38 12.56C16.55 12.17 16.67 11.77 16.77 11.35C16.89 10.84 16.95 10.29 16.95 9.77C16.95 9.22 16.89 8.69 16.77 8.18C16.67 7.76 16.55 7.36 16.38 6.97C16.21 6.57 16.02 6.19 15.77 5.83C15.5 5.42 15.2 5.03 14.85 4.68C14.49 4.33 14.1 4.02 13.7 3.76C13.34 3.51 12.96 3.32 12.56 3.15C12.17 2.98 11.77 2.86 11.35 2.76C10.84 2.64 10.29 2.59 9.77 2.59C9.22 2.59 8.69 2.64 8.18 2.76C7.76 2.86 7.36 2.98 6.97 3.15C6.57 3.32 6.19 3.51 5.83 3.76C5.41 4.02 5.03 4.33 4.68 4.68C4.33 5.03 4.02 5.42 3.76 5.83C3.51 6.19 3.32 6.57 3.15 6.97C2.98 7.36 2.86 7.76 2.76 8.18C2.64 8.69 2.58 9.22 2.58 9.77C2.58 10.28 2.64 10.79 2.75 11.29ZM10.38 9.15L10.38 6.71C10.38 6.37 10.11 6.11 9.77 6.11C9.42 6.11 9.16 6.37 9.16 6.71L9.16 9.15L6.73 9.15C6.37 9.15 6.12 9.42 6.12 9.76C6.12 10.1 6.37 10.37 6.73 10.37L9.16 10.37L9.16 12.8C9.16 13.14 9.42 13.41 9.77 13.41C10.11 13.41 10.38 13.14 10.38 12.8L10.38 10.37L12.81 10.37C13.15 10.37 13.42 10.1 13.42 9.76C13.42 9.42 13.15 9.15 12.81 9.15L10.38 9.15Z" fill="currentColor" fill-opacity="1.000000" fill-rule="evenodd"></path></g></svg>