<svg data-v-d3e79a02="" xmlns="http://www.w3.org/2000/svg" xmlns:xlink="http://www.w3.org/1999/xlink" width="20" height="20" viewBox="0 0 20 20" fill="none"><defs><clipPath id="clip98_51328"><rect id="展开" width="20.000000" height="20.000000" fill="white" fill-opacity="0"></rect></clipPath></defs><g clip-path="url(#clip98_51328)"><path id="矢量 81" d="M5 1.87C3.27 1.87 1.87 3.27 1.87 5L1.87 15C1.87 16.72 3.27 18.12 5 18.12L15 18.12C16.72 18.12 18.12 16.72 18.12 15L18.12 5C18.12 3.27 16.72 1.87 15 1.87L5 1.87ZM5 3.12L6.87 3.12L6.87 16.87L5 16.87C3.96 16.87 3.12 16.03 3.12 15L3.12 5C3.12 3.96 3.96 3.12 5 3.12ZM15 16.87L8.12 16.87L8.12 3.12L15 3.12C16.03 3.12 16.87 3.96 16.87 5L16.87 15C16.87 16.03 16.03 16.87 15 16.87ZM11.05 7.05C11.3 6.81 11.69 6.81 11.94 7.05L14.35 9.46C14.42 9.54 14.48 9.62 14.51 9.71C14.55 9.8 14.57 9.89 14.57 10C14.57 10.1 14.55 10.19 14.51 10.28C14.48 10.37 14.42 10.45 14.35 10.53L11.94 12.94C11.69 13.18 11.3 13.18 11.05 12.94C10.81 12.69 10.81 12.3 11.05 12.05L13.11 10L11.05 7.94C10.81 7.69 10.81 7.3 11.05 7.05Z" fill="currentColor" fill-opacity="1.000000" fill-rule="evenodd"></path></g></svg>