<svg viewBox="0 0 24 24" xmlns="http://www.w3.org/2000/svg" xmlns:xlink="http://www.w3.org/1999/xlink" width="24.000000" height="24.000000" fill="none">
	<rect id="图标" width="24.000000" height="24.000000" x="0.000000" y="0.000000" fill="rgb(255,255,255)" fill-opacity="0" />
	<path id="矢量 1289" d="M3.58603 13.6576L4.30905 15.0759C3.81217 15.5574 3.55527 16.0697 3.53988 16.6143C3.60295 17.6403 4.42443 18.5295 6.00277 19.2833C7.58111 20.0371 9.57942 20.4278 12.0008 20.4601C14.419 20.4278 16.4189 20.0355 17.9972 19.2833C19.5756 18.5295 20.397 17.6403 20.4617 16.6143C20.4463 16.0697 20.1878 15.5559 19.6925 15.0759L20.437 13.6576C20.9339 14.0745 21.3185 14.5313 21.5908 15.0267C21.8631 15.5236 22 16.0528 22 16.6143C21.9185 18.2003 20.9339 19.4863 19.0433 20.4724C17.1511 21.457 14.8036 21.9662 11.9992 21.9985C9.19637 21.9662 6.84886 21.457 4.9567 20.4724C3.06607 19.4879 2.07999 18.2018 2 16.6143C2 16.0528 2.14153 15.5236 2.42151 15.0282C2.70148 14.5313 3.09069 14.0745 3.58757 13.6576L3.58603 13.6576ZM3.58603 9.04253L4.30905 10.4609C3.81217 10.9424 3.55527 11.4547 3.53988 11.9992C3.60295 13.0253 4.42443 13.9145 6.00277 14.6683C7.58111 15.422 9.57942 15.8128 12.0008 15.8451C14.419 15.8128 16.4189 15.4205 17.9972 14.6683C19.5756 13.9145 20.397 13.0253 20.4617 11.9992C20.4463 11.4547 20.1878 10.9408 19.6925 10.4609L20.437 9.04253C20.9339 9.45942 21.3185 9.91631 21.5908 10.4117C21.8631 10.9085 22 11.4377 22 11.9992C21.9185 13.5853 20.9339 14.8713 19.0433 15.8574C17.1511 16.8419 14.8036 17.3511 11.9992 17.3834C9.19637 17.3511 6.84886 16.8419 4.9567 15.8574C3.06607 14.8729 2.07999 13.5868 2 11.9992C2 11.4377 2.14153 10.9101 2.42151 10.4117C2.70149 9.91631 3.09069 9.45789 3.58757 9.04253L3.58603 9.04253ZM11.9992 12.7684C9.19483 12.7361 6.84732 12.2269 4.9567 11.2424C3.06607 10.2578 2.07999 8.97177 2 7.3842C2.07999 5.79817 3.06607 4.51211 4.9567 3.52604C6.84886 2.5415 9.19483 2.03231 11.9992 2C14.8036 2.03231 17.1511 2.5415 19.0418 3.52604C20.9324 4.51058 21.9185 5.79663 21.9985 7.3842C21.9185 8.97023 20.9324 10.2563 19.0418 11.2424C17.1496 12.2269 14.8036 12.7361 11.9992 12.7684ZM11.9992 11.2301C14.419 11.1978 16.4189 10.8055 17.9972 10.0517C19.5756 9.29944 20.397 8.41028 20.4601 7.3842C20.3955 6.35813 19.5756 5.46896 17.9972 4.71518C16.4189 3.96139 14.4175 3.57065 11.9992 3.53834C9.57942 3.57065 7.58111 3.96293 6.00123 4.71518C4.42289 5.46896 3.60142 6.35813 3.53834 7.3842C3.60295 8.41028 4.42289 9.29944 6.00123 10.0517C7.58111 10.8055 9.57942 11.1978 11.9992 11.2301Z" fill="rgb(89,89,89)" fill-rule="nonzero" />
</svg>
