<svg viewBox="0 0 440 267.866" xmlns="http://www.w3.org/2000/svg" xmlns:xlink="http://www.w3.org/1999/xlink" width="440.000000" height="267.865753" fill="none" customFrame="#000000">
	<defs>
		<linearGradient id="paint_linear_0" x1="220.000046" x2="219.723053" y1="141.982422" y2="267.931458" gradientUnits="userSpaceOnUse">
			<stop stop-color="rgb(233,239,254)" offset="0" stop-opacity="1" />
			<stop stop-color="rgb(255,255,255)" offset="1" stop-opacity="1" />
		</linearGradient>
		<linearGradient id="paint_linear_1" x1="200.121155" x2="21.1802216" y1="92.0172806" y2="129.000778" gradientUnits="userSpaceOnUse">
			<stop stop-color="rgb(208,221,255)" offset="0" stop-opacity="1" />
			<stop stop-color="rgb(232,238,255)" offset="1" stop-opacity="1" />
		</linearGradient>
		<linearGradient id="paint_linear_2" x1="251.243927" x2="211.378677" y1="48.208992" y2="213.232559" gradientUnits="userSpaceOnUse">
			<stop stop-color="rgb(243,246,254)" offset="0" stop-opacity="1" />
			<stop stop-color="rgb(221,230,255)" offset="1" stop-opacity="1" />
		</linearGradient>
		<linearGradient id="paint_linear_3" x1="145.555237" x2="237.801559" y1="146.945114" y2="171.513245" gradientUnits="userSpaceOnUse">
			<stop stop-color="rgb(255,255,255)" offset="0" stop-opacity="0.800000012" />
			<stop stop-color="rgb(255,255,255)" offset="1" stop-opacity="0.400000006" />
		</linearGradient>
		<linearGradient id="paint_linear_4" x1="215.222519" x2="287.363831" y1="154.801071" y2="173.971344" gradientUnits="userSpaceOnUse">
			<stop stop-color="rgb(255,255,255)" offset="0" stop-opacity="0.699999988" />
			<stop stop-color="rgb(255,255,255)" offset="1" stop-opacity="0.400000006" />
		</linearGradient>
	</defs>
	<g id="空状态_默认图">
		<path id="矢量 1254" d="M12.9787 176.226C60.4461 118.004 211.378 151.658 211.378 151.658C211.378 151.658 251.708 155.83 285.547 155.83C319.386 155.83 339.966 150.731 405.605 180.398C471.244 210.065 422.756 230.461 422.756 230.461C183.194 307.225 32.4477 242.05 32.4477 242.05C32.4477 242.05 -24.9953 222.803 12.9787 176.226Z" fill="url(#paint_linear_0)" fill-rule="evenodd" />
		<path id="矢量 1254" d="M12.9787 176.226C-24.9953 222.803 32.4477 242.05 32.4477 242.05C32.4477 242.05 183.194 307.225 422.756 230.461C422.756 230.461 471.244 210.065 405.605 180.398C339.966 150.731 319.386 155.83 285.547 155.83C251.708 155.83 211.378 151.658 211.378 151.658C211.378 151.658 60.4461 118.004 12.9787 176.226Z" fill-rule="evenodd" stroke="rgb(0,0,0)" stroke-opacity="0" stroke-width="0.927098751" />
		<g id="组合 16987">
			<path id="矢量 1257" d="M391.983 138.138C392.911 127.013 398.755 121.45 400.327 121.45C401.898 121.45 402.94 123.935 404.679 126.716C406.417 129.498 406.901 130.4 407.925 132.575C410.891 138.88 411.916 141.383 411.916 154.362C411.916 167.342 418.404 166.414 418.405 172.441C418.405 188.387 402.182 187.738 400.79 187.738C380.394 188.665 375.296 167.063 384.567 160.388C393.838 153.713 391.055 149.263 391.983 138.138Z" fill="rgb(232,239,255)" fill-rule="evenodd" />
			<path id="矢量 1257" d="M391.983 138.138C391.055 149.263 393.838 153.713 384.567 160.388C375.296 167.063 380.394 188.665 400.79 187.738C402.182 187.738 418.405 188.387 418.405 172.441C418.404 166.414 411.916 167.342 411.916 154.362C411.916 141.383 410.891 138.88 407.925 132.575C406.901 130.4 406.417 129.498 404.679 126.716C402.94 123.935 401.898 121.45 400.327 121.45C398.755 121.45 392.911 127.013 391.983 138.138Z" fill-rule="evenodd" stroke="rgb(0,0,0)" stroke-opacity="0" stroke-width="0.927098751" />
			<path id="矢量 1258" d="M393.936 161.778C393.937 168.732 387.54 170.03 399.035 184.492L399.035 197.472M403.671 152.044L403.671 170.122L403.67 172.503C403.67 176.937 402.018 181.211 399.035 184.492" stroke="rgb(209,222,255)" stroke-linecap="round" stroke-width="1.29793823" />
		</g>
		<circle id="椭圆 3746" cx="384.282135" cy="75.5585098" r="14.3700304" fill="rgb(232,239,255)" />
		<g id="组合 16988">
			<path id="矢量 1255" d="M51.7368 98.2722C52.665 87.147 58.509 81.5846 60.0807 81.5845C61.6523 81.5844 62.6944 84.0694 64.4327 86.8507C66.1711 89.632 66.6549 90.5342 67.6787 92.7097C70.6454 99.0139 71.6695 101.517 71.6695 114.496C71.6695 127.476 78.1583 126.549 78.1592 132.575C78.1592 148.521 61.9356 147.872 60.5442 147.872C40.1476 148.799 35.0499 127.198 44.3209 120.523C53.5918 113.847 50.8085 109.397 51.7368 98.2722Z" fill="rgb(232,239,255)" fill-rule="evenodd" />
			<path id="矢量 1255" d="M51.7368 98.2722C50.8085 109.397 53.5918 113.847 44.3209 120.523C35.0499 127.198 40.1476 148.799 60.5442 147.872C61.9356 147.872 78.1592 148.521 78.1592 132.575C78.1583 126.549 71.6695 127.476 71.6695 114.496C71.6695 101.517 70.6454 99.0139 67.6787 92.7097C66.6549 90.5342 66.1711 89.632 64.4327 86.8507C62.6944 84.0694 61.6523 81.5844 60.0807 81.5845C58.509 81.5846 52.665 87.147 51.7368 98.2722Z" fill-rule="evenodd" stroke="rgb(0,0,0)" stroke-opacity="0" stroke-width="0.927098751" />
			<path id="矢量 1256" d="M53.6923 122.84C53.693 129.794 47.2957 131.092 58.7913 145.554L58.7909 158.534M63.4264 113.106L63.4264 131.184L63.4262 133.565C63.4262 137.999 61.7737 142.273 58.7913 145.554" stroke="rgb(209,222,255)" stroke-linecap="round" stroke-width="1.29793823" />
		</g>
		<circle id="椭圆 3744" cx="23.6401062" cy="134.893036" r="7.88033962" fill="rgb(232,239,255)" />
		<circle id="椭圆 3745" cx="67.2137375" cy="29.2034798" r="11.5887346" fill="rgb(232,239,255)" />
		<rect id="矩形 18613" width="205.815918" height="165.023575" x="0.000000" y="0.000000" rx="14.833580" fill="url(#paint_linear_1)" transform="matrix(0.98501,0.172499,-0.172499,0.98501,151.117,0)" />
		<g id="组合 16986">
			<rect id="矩形 18612" width="205.815933" height="165.023575" x="108.470703" y="48.208984" rx="14.833580" fill="url(#paint_linear_2)" />
			<ellipse id="椭圆 3742" rx="14.833580" ry="14.833579" cx="277.202728" cy="81.5845566" fill="rgb(255,255,255)" />
			<path id="多边形 9" d="M242.412 164.604C247.649 171.969 242.382 182.175 233.345 182.175L143.986 182.175C134.948 182.175 129.682 171.969 134.919 164.604L179.598 101.756C184.033 95.5172 193.297 95.5172 197.733 101.756L242.412 164.604Z" fill="url(#paint_linear_3)" fill-rule="evenodd" />
			<path id="多边形 10" d="M290.333 167.772C294.687 173.911 290.298 182.406 282.771 182.406L215.083 182.406C207.556 182.406 203.166 173.911 207.521 167.772L241.365 120.058C245.06 114.849 252.793 114.849 256.489 120.058L290.333 167.772Z" fill="url(#paint_linear_4)" fill-rule="evenodd" />
		</g>
	</g>
</svg>
