<svg viewBox="0 0 32 32" xmlns="http://www.w3.org/2000/svg" xmlns:xlink="http://www.w3.org/1999/xlink" width="32.000000" height="32.000000" fill="none">
	<defs>
		<linearGradient id="paint_linear_8" x1="16" x2="16" y1="0" y2="32" gradientUnits="userSpaceOnUse">
			<stop stop-color="rgb(20,118,255)" offset="0" stop-opacity="1" />
			<stop stop-color="rgb(65,145,250)" offset="1" stop-opacity="1" />
		</linearGradient>
		<clipPath id="clipPath_25">
			<rect width="20.392157" height="19.999998" x="6.117188" y="6.000000" rx="9.999999" fill="rgb(255,255,255)" />
		</clipPath>
		<clipPath id="clipPath_26">
			<rect width="20.392157" height="19.999998" x="6.117188" y="6.000000" rx="9.999999" fill="rgb(255,255,255)" />
		</clipPath>
	</defs>
	<rect id="7_icon_1" width="32.000000" height="32.000000" x="0.000000" y="0.000000" />
	<g id="组合 14734">
		<rect id="矩形 7923" width="32.000000" height="32.000000" x="0.000000" y="0.000000" rx="8.000000" fill="url(#paint_linear_8)" />
		<g id="数据开发平台 7" customFrame="url(#clipPath_25)">
			<rect id="数据开发平台 7" width="20.392157" height="19.999998" x="6.117188" y="6.000000" rx="9.999999" />
			<rect id="数据开发平台" width="20.392157" height="19.999998" x="6.117188" y="6.000000" />
			<path id="减去顶层" d="M8.24219 8.91671C8.24219 8.45647 8.6226 8.08337 9.09186 8.08337L13.8462 8.08337C14.064 8.08337 14.2705 8.17824 14.4099 8.34233L16.0941 10.3244C16.2335 10.4885 16.44 10.5834 16.6578 10.5834L23.5363 10.5834C24.0056 10.5834 24.386 10.9565 24.386 11.4167L24.386 22.25C24.386 22.7103 24.0056 23.0834 23.5363 23.0834L9.09186 23.0834C8.6226 23.0834 8.24219 22.7103 8.24219 22.25L8.24219 8.91671ZM17.0696 13.4265C17.3633 13.5191 17.5213 13.8227 17.4287 14.1164L15.7354 19.487C15.6428 19.7808 15.3392 19.9388 15.0455 19.8462C14.7517 19.7536 14.5937 19.45 14.6863 19.1562L16.3796 13.7856C16.4723 13.4919 16.7758 13.3339 17.0696 13.4265ZM11.6189 16.5774L13.59 14.8782C13.8232 14.6771 13.8485 14.3358 13.6474 14.1025C13.4463 13.8693 13.105 13.844 12.8717 14.0451L10.5662 16.0326C10.5244 16.0687 10.4876 16.1083 10.4557 16.1517C10.4257 16.1926 10.4002 16.2367 10.379 16.284Q10.3483 16.3527 10.3327 16.4247Q10.3166 16.4993 10.3166 16.5774Q10.3166 16.6555 10.3327 16.7301L10.3327 16.7301Q10.3483 16.8021 10.379 16.8708C10.4002 16.9181 10.4257 16.9622 10.4557 17.0031L10.4557 17.0031Q10.5035 17.0681 10.5662 17.1222L12.8717 19.1097C13.105 19.3108 13.4463 19.2855 13.6474 19.0522C13.8485 18.819 13.8232 18.4776 13.59 18.2765L11.6189 16.5774ZM18.7619 14.8782L20.7329 16.5774L18.7619 18.2765C18.5286 18.4776 18.5033 18.819 18.7045 19.0522C18.9056 19.2855 19.2469 19.3108 19.4801 19.1097L21.7857 17.1222Q21.8484 17.0681 21.8961 17.0031L21.8961 17.0031L21.8961 17.0031C21.9261 16.9622 21.9517 16.9181 21.9728 16.8708Q22.0035 16.8021 22.0191 16.7302L22.0191 16.7301C22.0299 16.6803 22.0353 16.6294 22.0353 16.5774C22.0353 16.5253 22.0299 16.4744 22.0191 16.4247C22.0087 16.3767 21.9933 16.3298 21.9728 16.284C21.9517 16.2367 21.9261 16.1926 21.8961 16.1517Q21.8484 16.0867 21.7857 16.0326L19.4801 14.0451C19.2469 13.844 18.9056 13.8693 18.7045 14.1025C18.5034 14.3358 18.5286 14.6771 18.7619 14.8782Z" fill="rgb(255,255,255)" fill-rule="evenodd" />
		</g>
		<g id="加密行为阻断 1" opacity="0" customFrame="url(#clipPath_26)">
			<rect id="加密行为阻断 1" width="20.392157" height="19.999998" x="6.117188" y="6.000000" rx="9.999999" opacity="0" />
			<rect id="加密行为阻断" width="20.392157" height="19.999998" x="6.117188" y="6.000000" />
			<path id="减去顶层" d="M6.9668 8.21491C6.9668 7.682 7.40727 7.25 7.95063 7.25L13.4557 7.25C13.7078 7.25 13.9469 7.35985 14.1084 7.54985L16.0584 9.84489C16.2199 10.0349 16.459 10.1447 16.7112 10.1447L24.6758 10.1447C25.2191 10.1447 25.6596 10.5767 25.6596 11.1097L25.6596 23.6535C25.6596 24.1864 25.2191 24.6184 24.6758 24.6184L7.95063 24.6184C7.40727 24.6184 6.9668 24.1864 6.9668 23.6535L6.9668 8.21491ZM17.2005 13.2917C17.5228 13.2917 17.784 13.5528 17.784 13.875L17.784 17.3542L19.244 17.3542C19.7836 17.3542 20.0335 18.0249 19.6257 18.3785L16.499 21.0859C16.28 21.2758 15.9545 21.2758 15.7356 21.0859L12.6088 18.3785C12.2003 18.0249 12.4509 17.3542 12.9905 17.3542L14.4505 17.3542L14.4505 13.875C14.4505 13.5528 14.7118 13.2917 15.0341 13.2917L17.2005 13.2917Z" fill="rgb(255,255,255)" fill-rule="evenodd" />
		</g>
	</g>
</svg>
