<svg viewBox="0 0 64 64" xmlns="http://www.w3.org/2000/svg" xmlns:xlink="http://www.w3.org/1999/xlink" width="64.000000" height="64.000000" fill="none">
	<defs>
		<linearGradient id="paint_linear_4" x1="0" x2="63.9999924" y1="0" y2="63.9999924" gradientUnits="userSpaceOnUse">
			<stop stop-color="rgb(68,154,255)" offset="0.00499924878" stop-opacity="1" />
			<stop stop-color="rgb(20,118,255)" offset="0.501534343" stop-opacity="1" />
			<stop stop-color="rgb(53,137,255)" offset="1" stop-opacity="1" />
		</linearGradient>
		<clipPath id="clipPath_20">
			<rect width="36.000000" height="36.000000" x="14.000000" y="14.000000" fill="rgb(255,255,255)" />
		</clipPath>
	</defs>
	<rect id="8_icon_3" width="64.000000" height="64.000000" x="0.000000" y="0.000000" fill="rgb(255,255,255)" fill-opacity="0" />
	<g id="组合 5582">
		<rect id="矩形备份-19" width="64.000000" height="64.000000" x="0.000000" y="0.000000" rx="16.000000" fill="url(#paint_linear_4)" />
		<g id="CD 2" customFrame="url(#clipPath_20)">
			<rect id="CD 2" width="36.000000" height="36.000000" x="14.000000" y="14.000000" />
			<rect id="CD" width="36.000000" height="36.000000" x="14.000000" y="14.000000" />
			<path id="矢量 282" d="M16.9618 21.164L30.5068 16.034C31.326 15.719 32.235 15.719 33.0538 16.034L46.5989 21.164C48.1468 21.749 48.1468 23.9449 46.5989 24.53L39.5592 27.2008L33.0538 29.669C32.8491 29.7455 32.6389 29.8029 32.4254 29.8411C32.1958 29.8824 31.9629 29.9013 31.73 29.8981C31.315 29.8924 30.9005 29.8161 30.5068 29.669L24.0015 27.2008L16.9618 24.53C15.4138 23.9449 15.4138 21.749 16.9618 21.164ZM29.8677 31.352L21.4618 28.1627L16.9618 29.867C15.4138 30.461 15.4138 32.648 16.9618 33.242L24.0015 35.9082L24.4493 36.0777L30.5068 38.372C30.7115 38.4507 30.9221 38.5098 31.1352 38.5491C31.4868 38.6141 31.846 38.6255 32.2001 38.5833C32.4906 38.5488 32.7773 38.4783 33.0538 38.372L46.5989 33.242C48.1468 32.648 48.1468 30.461 46.5989 29.867L42.0989 28.1626L33.6928 31.352C33.387 31.466 33.075 31.553 32.7568 31.613C32.4331 31.673 32.106 31.703 31.7761 31.703C31.452 31.703 31.1279 31.673 30.8038 31.613C30.486 31.553 30.174 31.466 29.8677 31.352ZM30.8038 40.316C30.486 40.256 30.174 40.169 29.8677 40.055L21.4625 36.8715L16.9618 38.579C15.4138 39.164 15.4138 41.36 16.9618 41.945L30.5068 47.075C31.326 47.39 32.235 47.39 33.0538 47.075L46.5989 41.945C48.1468 41.36 48.1468 39.164 46.5989 38.579L42.0985 36.8715L33.6928 40.055C33.387 40.169 33.075 40.256 32.7568 40.316C32.4331 40.376 32.106 40.406 31.7761 40.406C31.452 40.406 31.1279 40.376 30.8038 40.316Z" fill="rgb(255,255,255)" fill-rule="evenodd" />
		</g>
	</g>
</svg>
