<svg viewBox="0 0 16 16" xmlns="http://www.w3.org/2000/svg" xmlns:xlink="http://www.w3.org/1999/xlink" width="16.000000" height="16.000000" fill="none">
	<rect id="操作图标/智能推荐(ai-inspiration-linear)" width="16.000000" height="16.000000" x="0.000000" y="0.000000" fill="rgb(255,255,255)" fill-opacity="0" />
	<g id="ai-inspiratior">
		<path id="矢量 802" d="M12.6218 0.598534C12.6863 0.350294 13.0457 0.319962 13.1125 0.567547C13.2234 0.951649 13.5442 1.29265 13.9324 1.39033C14.1841 1.45375 14.1843 1.8117 13.9324 1.87518C13.531 1.97629 13.2146 2.29269 13.1138 2.69385C13.0503 2.94577 12.6924 2.94581 12.6289 2.6939C12.5278 2.29268 12.2114 1.9763 11.8101 1.8753C11.5583 1.81187 11.5581 1.45392 11.8101 1.39044C12.2031 1.29142 12.5154 0.985615 12.6218 0.598534ZM6.58765 2.44954L6.63208 2.2787C6.76099 1.78222 7.46484 1.77872 7.59863 2.27389L7.67017 2.53855C8.43213 5.17407 10.5537 7.22658 13.2161 7.89689C13.72 8.02375 13.72 8.73965 13.2161 8.86661C10.4629 9.5604 8.29468 11.7289 7.60156 14.4818C7.47461 14.9857 6.75879 14.9857 6.63184 14.4819C5.93799 11.7287 3.76953 9.5604 1.0166 8.86727C0.512695 8.74041 0.512695 8.02451 1.0166 7.89755C3.71289 7.21806 5.85254 5.12231 6.58765 2.44954ZM12.9722 11.9205C12.8018 12.5399 12.2905 13.0749 11.6619 13.2333C11.2588 13.3349 11.2588 13.9076 11.6619 14.0091C12.3037 14.1707 12.8101 14.6769 12.9717 15.3188C13.0732 15.7219 13.646 15.7218 13.7476 15.3188C13.9092 14.6769 14.4153 14.1707 15.0571 14.0089C15.4602 13.9073 15.4602 13.3346 15.0571 13.2331C14.4365 13.0768 13.9412 12.5976 13.7634 11.9831C13.6562 11.5869 13.0754 11.5233 12.9722 11.9205Z" fill="rgb(155,88,217)" fill-rule="nonzero" />
		<path id="矢量 802" d="M13.5734 1.21999C13.6821 1.29869 13.8035 1.35791 13.9324 1.39033C14.0583 1.42205 14.1212 1.52744 14.1212 1.63281C14.1212 1.73814 14.0583 1.84345 13.9324 1.87518C13.8033 1.9077 13.683 1.96248 13.5759 2.03518Q13.6212 1.84115 13.6212 1.63286L13.6212 1.63231C13.6211 1.48987 13.6052 1.35243 13.5734 1.21999ZM12.6289 2.6939C12.5977 2.56993 12.5459 2.45405 12.4774 2.35013C12.4801 2.35079 12.4829 2.35145 12.4857 2.35209C12.6543 2.3917 12.8291 2.40498 13.0102 2.39192C13.0961 2.38573 13.1798 2.37373 13.2613 2.35594C13.1947 2.45836 13.1443 2.57221 13.1138 2.69385C13.0503 2.94577 12.6924 2.94581 12.6289 2.6939ZM11.8101 1.8753C11.6842 1.84358 11.6212 1.73819 11.6212 1.63282C11.6212 1.52749 11.6841 1.42218 11.8101 1.39044C11.9329 1.3595 12.0478 1.30836 12.1511 1.24086C12.1563 1.23746 12.1614 1.23403 12.1666 1.23055Q12.1212 1.42453 12.1212 1.63275L12.1212 1.63331C12.1213 1.77204 12.1364 1.90601 12.1666 2.03523C12.0594 1.96254 11.9391 1.90778 11.8101 1.8753ZM12.4695 0.92802C12.5372 0.828242 12.5892 0.717207 12.6218 0.598534C12.6863 0.350294 13.0457 0.319962 13.1125 0.567547C13.1497 0.696379 13.2105 0.820363 13.2896 0.931942Q13.0881 0.88279 12.8711 0.882812C12.7325 0.882827 12.5986 0.897896 12.4695 0.92802ZM11.9253 9.31729C11.8127 9.36821 11.7016 9.42175 11.592 9.47783C10.141 10.2201 8.9547 11.4065 8.21266 12.8573C8.15656 12.967 8.10299 13.0782 8.05204 13.1909C7.86553 13.6032 7.7141 14.0348 7.60156 14.4818C7.47461 14.9857 6.75879 14.9857 6.63184 14.4819C6.51919 14.0349 6.36767 13.6034 6.1811 13.191C6.13013 13.0784 6.07655 12.9672 6.02043 12.8575C5.27814 11.4066 4.09176 10.2203 2.64094 9.47831C2.53131 9.42223 2.42017 9.3687 2.30759 9.31778C1.89521 9.13126 1.46361 8.97981 1.0166 8.86727C0.764648 8.80384 0.638672 8.59315 0.638672 8.38245C0.638672 8.17175 0.764648 7.96103 1.0166 7.89755C1.46344 7.78495 1.895 7.63344 2.3074 7.44686C2.42006 7.39589 2.53129 7.3423 2.64102 7.28617C4.09309 6.54339 5.28113 5.35579 6.0228 3.90388C6.07819 3.79544 6.13109 3.68553 6.18143 3.57422C6.34469 3.21319 6.48096 2.83744 6.58765 2.44954L6.63208 2.2787C6.76099 1.78222 7.46484 1.77872 7.59863 2.27389L7.67017 2.53855C7.76541 2.86799 7.8819 3.18832 8.01803 3.49798C8.02911 3.52316 8.04031 3.54827 8.05163 3.57331C8.1026 3.68596 8.15618 3.79716 8.2123 3.90684C8.95521 5.35896 10.1422 6.54438 11.5916 7.28573C11.7013 7.34184 11.8125 7.39541 11.9251 7.44635C12.3376 7.63295 12.7692 7.78439 13.2161 7.89689C13.468 7.96032 13.594 8.17101 13.594 8.38171C13.594 8.59241 13.468 8.80313 13.2161 8.86661C12.7691 8.97924 12.3376 9.13073 11.9253 9.31729ZM9.53385 8.38137Q8.90782 7.94106 8.34052 7.39275Q7.65184 6.72711 7.11783 5.96486Q6.60105 6.7002 5.93622 7.35063Q5.34966 7.92449 4.69928 8.38191Q5.39154 8.86886 6.01052 9.48778Q6.62942 10.1066 7.11642 10.7988Q7.60326 10.1067 8.22199 9.4879Q8.84121 8.86861 9.53385 8.38137ZM12.9722 11.9205C13.0754 11.5233 13.6562 11.5869 13.7634 11.9831C13.7961 12.0962 13.8396 12.2047 13.8926 12.3075C13.9069 12.3351 13.9218 12.3623 13.9375 12.3891C14.0962 12.6613 14.324 12.8882 14.5963 13.0458C14.6187 13.0588 14.6414 13.0713 14.6644 13.0833C14.7877 13.1478 14.9193 13.1984 15.0571 13.2331C15.2587 13.2839 15.3594 13.4524 15.3594 13.621C15.3594 13.7895 15.2587 13.9581 15.0571 14.0089C14.9225 14.0428 14.7781 14.1001 14.6573 14.1625C14.6454 14.1685 14.6182 14.1834 14.5914 14.1991C14.3211 14.3568 14.0952 14.5827 13.9376 14.853C13.9333 14.8605 13.9289 14.8681 13.9246 14.8757C13.9137 14.8951 13.9031 14.9147 13.8929 14.9345C13.8306 15.0553 13.7815 15.184 13.7476 15.3188C13.646 15.7218 13.0732 15.7219 12.9717 15.3188C12.9376 15.1833 12.8881 15.0538 12.8252 14.9323C12.8178 14.9181 12.8102 14.9039 12.8025 14.8899C12.7957 14.8775 12.7887 14.8653 12.7816 14.8531C12.6239 14.5827 12.398 14.3568 12.1277 14.1992C12.1087 14.1881 12.0894 14.1774 12.07 14.1669C12.062 14.1627 12.054 14.1585 12.046 14.1544C11.9252 14.092 11.7965 14.043 11.6619 14.0091C11.4603 13.9583 11.3596 13.7898 11.3596 13.6212C11.3596 13.4527 11.4603 13.2841 11.6619 13.2333C11.7955 13.1996 11.9238 13.1489 12.0447 13.084C12.0634 13.074 12.082 13.0636 12.1003 13.0528C12.3757 12.892 12.609 12.6568 12.7734 12.3825C12.7739 12.3817 12.7743 12.3809 12.7748 12.3801C12.7898 12.355 12.8043 12.3295 12.8181 12.3038C12.8836 12.1818 12.9357 12.0531 12.9722 11.9205ZM13.3594 13.6211L13.3595 13.6356L13.3596 13.6212L13.3596 13.6211L13.3594 13.6211Z" fill="rgb(151,151,151)" fill-opacity="0" fill-rule="evenodd" />
	</g>
</svg>
