<svg viewBox="0 0 64 64" xmlns="http://www.w3.org/2000/svg" xmlns:xlink="http://www.w3.org/1999/xlink" width="64.000000" height="64.000000" fill="none">
	<defs>
		<linearGradient id="paint_linear_6" x1="0" x2="63.9999924" y1="0" y2="63.9999924" gradientUnits="userSpaceOnUse">
			<stop stop-color="rgb(255,115,45)" offset="0.00499924878" stop-opacity="1" />
			<stop stop-color="rgb(232,53,17)" offset="0.501534343" stop-opacity="1" />
			<stop stop-color="rgb(246,66,30)" offset="1" stop-opacity="1" />
		</linearGradient>
		<clipPath id="clipPath_22">
			<rect width="40.000000" height="40.000000" x="12.000000" y="12.000000" fill="rgb(255,255,255)" />
		</clipPath>
		<clipPath id="clipPath_23">
			<rect width="38.000000" height="38.000000" x="13.000000" y="13.000000" fill="rgb(255,255,255)" />
		</clipPath>
	</defs>
	<rect id="8_icon_5" width="64.000000" height="64.000000" x="0.000000" y="0.000000" fill="rgb(255,255,255)" fill-opacity="0" />
	<g id="组合 5582">
		<rect id="矩形备份-19" width="64.000000" height="64.000000" x="0.000000" y="0.000000" rx="16.000000" fill="url(#paint_linear_6)" />
		<g id="svg 1" clip-path="url(#clipPath_22)" customFrame="url(#clipPath_22)">
			<rect id="svg 1" width="40.000000" height="40.000000" x="12.000000" y="12.000000" />
			<path id="矢量 1116" d="M50 23.1361L50 42.3834C50 42.5968 49.8868 42.7944 49.7017 42.9006C43.7818 46.2977 37.8812 48 32 48C26.1187 48 20.2181 46.2996 14.2981 42.9006C14.1131 42.7944 14 42.5968 14 42.3835L14 23.0144C14 22.5581 14.4896 22.268 14.894 22.4793C20.6195 25.4718 26.3215 26.968 32 26.968C37.6124 26.968 44.59 23.6817 49.1459 22.2529C49.7446 22.0652 50 22.5086 50 23.1361ZM25.5757 31.0103L21.0097 35.5763C20.7756 35.8104 20.7753 36.1899 21.0091 36.4243L21.292 36.708L25.5757 40.9899C25.8101 41.2241 26.1899 41.2241 26.4242 40.9898L26.9897 40.4243C27.224 40.1899 27.2241 39.8101 26.9897 39.5757L23.8384 36.4244C23.604 36.19 23.6041 35.81 23.8385 35.5757L26.708 32.708L26.9909 32.4243C27.2247 32.1898 27.2244 31.8104 26.9903 31.5763L26.4243 31.0103C26.1899 30.776 25.81 30.776 25.5757 31.0103ZM37.5757 31.0103L37.0097 31.5763C36.7756 31.8104 36.7753 32.1899 37.0091 32.4243L37.292 32.708L40.1615 35.5757C40.3959 35.81 40.396 36.19 40.1616 36.4244L37.0103 39.5757C36.7759 39.8101 36.7759 40.19 37.0103 40.4243L37.5763 40.9903C37.8104 41.2244 38.1898 41.2247 38.4243 40.9909L38.708 40.708L42.708 36.708L42.9909 36.4243C43.2247 36.1899 43.2244 35.8104 42.9903 35.5763L38.4243 31.0103C38.1899 30.776 37.81 30.776 37.5757 31.0103ZM33.106 31.552L29.3741 39.0158C29.226 39.312 29.3459 39.6722 29.6419 39.8206L30.3571 40.179C30.6535 40.3275 31.0143 40.2074 31.1626 39.9109L34.6259 32.9842C34.774 32.688 34.6541 32.3278 34.3581 32.1794L33.106 31.552L33.106 31.552ZM34.6925 16.1106C39.7139 16.929 43.4032 17.89 45.764 18.99C46.1082 19.1504 46.4317 19.309 46.7345 19.4658C47.1536 19.6829 47.1364 20.2693 46.7107 20.4729C42.6769 22.4027 38.6539 23.5389 34.6387 23.8855C34.2932 23.9153 34 23.6402 34 23.2934L34 16.7013C34 16.3329 34.3289 16.0514 34.6925 16.1106ZM30 16.7013L30 23.2934C30 23.6402 29.7068 23.9153 29.3612 23.8855C25.3458 23.5386 21.3209 22.4016 17.2867 20.4716C16.8624 20.2686 16.8442 19.6857 17.2617 19.469C17.5653 19.3114 17.8902 19.1521 18.236 18.99C20.5968 17.89 24.2861 16.929 29.3075 16.1106C29.6711 16.0514 30 16.3329 30 16.7013Z" fill="rgb(255,255,255)" fill-rule="nonzero" />
		</g>
		<g id="组合 16558" opacity="0">
			<g id="数据库 1" customFrame="url(#clipPath_23)">
				<rect id="数据库 1" width="38.000000" height="38.000000" x="13.000000" y="13.000000" />
				<rect id="数据库" width="38.000000" height="38.000000" x="13.000000" y="13.000000" />
				<path id="矢量 211" d="M31.9993 27.25C39.4255 27.25 45.4577 25.121 45.4577 22.5C45.4577 19.879 39.4255 17.75 31.9993 17.75C24.5732 17.75 18.541 19.879 18.541 22.5C18.541 25.121 24.5732 27.25 31.9993 27.25ZM45.4577 24.3241C43.516 26.4873 38.2194 28.0417 31.9993 28.0417C25.7793 28.0417 20.4827 26.4873 18.541 24.3241L18.541 28.8333C18.541 31.4543 24.5732 33.5833 31.9993 33.5833C39.4255 33.5833 45.4577 31.4543 45.4577 28.8333L45.4577 24.3241ZM31.9993 34.375C38.2194 34.375 43.516 32.8206 45.4577 30.6574L45.4577 35.1667C45.4577 37.7876 39.4255 39.9167 31.9993 39.9167C24.5732 39.9167 18.541 37.7876 18.541 35.1667L18.541 30.6574C20.4827 32.8206 25.7793 34.375 31.9993 34.375ZM45.4577 36.9907C43.516 39.154 38.2194 40.7083 31.9993 40.7083C25.7793 40.7083 20.4827 39.154 18.541 36.9907L18.541 41.5C18.541 44.121 24.5732 46.25 31.9993 46.25C39.4255 46.25 45.4577 44.121 45.4577 41.5L45.4577 36.9907Z" fill="rgb(255,255,255)" fill-rule="evenodd" />
			</g>
		</g>
	</g>
</svg>
