<svg viewBox="0 0 32 32" xmlns="http://www.w3.org/2000/svg" xmlns:xlink="http://www.w3.org/1999/xlink" width="32.000000" height="32.000000" fill="none">
	<defs>
		<clipPath id="clipPath_27">
			<rect width="30.000000" height="30.000000" x="0.000000" y="0.000000" fill="rgb(255,255,255)" />
		</clipPath>
		<linearGradient id="paint_linear_9" x1="1.875" x2="28.1249962" y1="1.875" y2="28.1249981" gradientUnits="userSpaceOnUse">
			<stop stop-color="rgb(255,161,60)" offset="0.00499924878" stop-opacity="1" />
			<stop stop-color="rgb(255,132,0)" offset="0.501534343" stop-opacity="1" />
			<stop stop-color="rgb(255,146,30)" offset="1" stop-opacity="1" />
		</linearGradient>
		<linearGradient id="paint_linear_10" x1="0" x2="31.9999962" y1="0" y2="31.9999962" gradientUnits="userSpaceOnUse">
			<stop stop-color="rgb(255,161,60)" offset="0.00499924878" stop-opacity="1" />
			<stop stop-color="rgb(255,132,0)" offset="0.501534343" stop-opacity="1" />
			<stop stop-color="rgb(255,146,30)" offset="1" stop-opacity="1" />
		</linearGradient>
		<clipPath id="clipPath_28">
			<rect width="20.000000" height="20.000000" x="6.000000" y="6.000000" fill="rgb(255,255,255)" />
		</clipPath>
	</defs>
	<rect id="7_icon_2" width="32.000000" height="32.000000" x="0.000000" y="0.000000" />
	<g id="组合 14728">
		<g id="数据 1" customFrame="url(#clipPath_27)">
			<rect id="数据 1" width="30.000000" height="30.000000" x="0.000000" y="0.000000" />
			<rect id="数据" width="30.000000" height="30.000000" x="0.000000" y="0.000000" />
			<path id="矢量 209" d="M22.4948 13.1513L16.7599 16.4624C16.7795 16.5685 16.7899 16.6779 16.7899 16.7896C16.7899 17.5681 16.2912 18.2313 15.5966 18.4773L15.5966 25.405L19.6756 27.7467C20.1151 27.9991 20.6665 28.125 21.2176 28.125C21.7688 28.125 22.3202 27.9991 22.76 27.7467L26.5781 25.5549C27.4454 25.0567 28.125 23.8803 28.125 22.8769L28.125 18.1734C28.125 17.1699 27.4454 15.9929 26.5781 15.4947L22.4948 13.1513ZM14.4034 25.3947L14.4034 18.4773C13.7088 18.2313 13.2101 17.5681 13.2101 16.7896C13.2101 16.6779 13.2205 16.5685 13.2401 16.4624L7.49631 13.1462L3.42316 15.484C2.55585 15.9821 1.875 17.1586 1.875 18.1626L1.875 22.8655C1.875 23.8689 2.55463 25.0454 3.42316 25.5442L7.24119 27.736C7.681 27.9878 8.23244 28.1142 8.78356 28.1142C9.33412 28.1142 9.88619 27.9878 10.325 27.736L14.4034 25.3947ZM8.08625 12.1091L13.8373 15.4295C14.1504 15.1617 14.5563 14.9999 15 14.9999C15.4437 14.9999 15.8496 15.1617 16.1628 15.4295L21.9012 12.1162L21.9012 7.12406C21.9012 6.12059 21.2219 4.94353 20.3543 4.44598L16.5356 2.25353C15.6561 1.74882 14.3301 1.74882 13.4513 2.25353L9.63319 4.44598C8.76556 4.94353 8.08625 6.12059 8.08625 7.12406L8.08625 12.1091Z" fill="url(#paint_linear_9)" fill-rule="evenodd" />
		</g>
		<g id="组合 14735">
			<rect id="矩形 7923" width="32.000000" height="32.000000" x="0.000000" y="0.000000" rx="8.000000" fill="url(#paint_linear_10)" />
			<g id="CD 1" customFrame="url(#clipPath_28)">
				<rect id="CD 1" width="20.000000" height="20.000000" x="6.000000" y="6.000000" />
				<rect id="CD" width="20.000000" height="20.000000" x="6.000000" y="6.000000" />
				<path id="矢量 282" d="M7.64499 9.98003L15.17 7.13003C15.6251 6.95503 16.1301 6.95503 16.585 7.13003L24.1101 9.98003C24.97 10.305 24.97 11.525 24.1101 11.85L20.1991 13.3338L16.585 14.705C16.4713 14.7475 16.3545 14.7794 16.2359 14.8007C16.1083 14.8236 15.9789 14.8341 15.8496 14.8323C15.619 14.8292 15.3887 14.7867 15.17 14.705L11.5559 13.3338L7.64499 11.85C6.785 11.525 6.785 10.305 7.64499 9.98003ZM14.815 15.64L10.145 13.8682L7.64499 14.815C6.785 15.145 6.785 16.36 7.64499 16.69L11.5559 18.1712L11.8047 18.2654L15.17 19.54C15.2837 19.5838 15.4007 19.6166 15.5191 19.6385C15.7144 19.6745 15.914 19.6809 16.1108 19.6575C16.2721 19.6383 16.4314 19.5991 16.585 19.54L24.1101 16.69C24.97 16.36 24.97 15.145 24.1101 14.815L21.6101 13.8682L16.94 15.64C16.7701 15.7034 16.5968 15.7517 16.42 15.785C16.2402 15.8184 16.0585 15.835 15.8752 15.835C15.6951 15.835 15.5151 15.8184 15.335 15.785C15.1584 15.7517 14.9851 15.7034 14.815 15.64ZM15.335 20.62C15.1584 20.5867 14.9851 20.5384 14.815 20.475L10.1454 18.7065L7.64499 19.655C6.785 19.98 6.785 21.2 7.64499 21.525L15.17 24.375C15.6251 24.55 16.1301 24.55 16.585 24.375L24.1101 21.525C24.97 21.2 24.97 19.98 24.1101 19.655L21.6098 18.7064L16.94 20.475C16.7701 20.5384 16.5968 20.5867 16.42 20.62C16.2402 20.6534 16.0585 20.67 15.8752 20.67C15.6951 20.67 15.5151 20.6534 15.335 20.62Z" fill="rgb(255,255,255)" fill-rule="evenodd" />
			</g>
		</g>
	</g>
</svg>
