<svg viewBox="0 0 64 64" xmlns="http://www.w3.org/2000/svg" xmlns:xlink="http://www.w3.org/1999/xlink" width="64.000000" height="64.000000" fill="none">
	<defs>
		<linearGradient id="paint_linear_3" x1="0" x2="63.9999924" y1="0" y2="63.9999924" gradientUnits="userSpaceOnUse">
			<stop stop-color="rgb(173,119,255)" offset="0.00499924878" stop-opacity="1" />
			<stop stop-color="rgb(155,66,238)" offset="0.501534343" stop-opacity="1" />
			<stop stop-color="rgb(166,82,248)" offset="1" stop-opacity="1" />
		</linearGradient>
		<clipPath id="clipPath_19">
			<rect width="36.000000" height="36.000000" x="14.000000" y="14.000000" fill="rgb(255,255,255)" />
		</clipPath>
	</defs>
	<rect id="8_icon_2" width="64.000000" height="64.000000" x="0.000000" y="0.000000" fill="rgb(255,255,255)" fill-opacity="0" />
	<g id="组合 5582">
		<rect id="矩形备份-19" width="64.000000" height="64.000000" x="0.000000" y="0.000000" rx="16.000000" fill="url(#paint_linear_3)" />
		<g id="个性化 1" clip-path="url(#clipPath_19)" customFrame="url(#clipPath_19)">
			<rect id="个性化 1" width="36.000000" height="36.000000" x="14.000000" y="14.000000" />
			<path id="矢量 1116" d="M32 14C22.064 14 14 22.064 14 32C14 41.936 22.064 50 32 50C33.656 50 35.006 48.65 35.006 46.994C35.006 46.202 34.7 45.518 34.214 44.96C33.764 44.438 33.458 43.754 33.458 42.998C33.458 41.342 34.808 39.992 36.464 39.992L40.01 39.992C45.536 39.992 50.018 35.51 50.018 29.984C50 21.164 41.936 14 32 14L32 14ZM21.002 32C19.346 32 17.996 30.65 17.996 28.994C17.996 27.338 19.346 25.988 21.002 25.988C22.658 25.988 24.008 27.338 24.008 28.994C24.008 30.65 22.658 32 21.002 32ZM26.996 24.008C25.34 24.008 23.99 22.658 23.99 21.002C23.99 19.346 25.34 17.996 26.996 17.996C28.652 17.996 30.002 19.346 30.002 21.002C30.002 22.658 28.652 24.008 26.996 24.008ZM37.004 24.008C35.348 24.008 33.998 22.658 33.998 21.002C33.998 19.346 35.348 17.996 37.004 17.996C38.66 17.996 40.01 19.346 40.01 21.002C39.992 22.658 38.66 24.008 37.004 24.008L37.004 24.008ZM42.998 32C41.342 32 39.992 30.65 39.992 28.994C39.992 27.338 41.342 25.988 42.998 25.988C44.654 25.988 46.004 27.338 46.004 28.994C46.004 30.65 44.654 32 42.998 32Z" fill="rgb(255,255,255)" fill-rule="nonzero" />
		</g>
	</g>
</svg>
