<svg viewBox="0 0 64 64" xmlns="http://www.w3.org/2000/svg" xmlns:xlink="http://www.w3.org/1999/xlink" width="64.000000" height="64.000000" fill="none">
	<defs>
		<linearGradient id="paint_linear_7" x1="0" x2="63.9999924" y1="0" y2="63.9999924" gradientUnits="userSpaceOnUse">
			<stop stop-color="rgb(255,161,60)" offset="0.00499924878" stop-opacity="1" />
			<stop stop-color="rgb(255,132,0)" offset="0.501534343" stop-opacity="1" />
			<stop stop-color="rgb(255,146,30)" offset="1" stop-opacity="1" />
		</linearGradient>
		<clipPath id="clipPath_24">
			<rect width="38.000000" height="38.000000" x="13.000000" y="13.000000" fill="rgb(255,255,255)" />
		</clipPath>
	</defs>
	<rect id="8_icon_6" width="64.000000" height="64.000000" x="0.000000" y="0.000000" fill="rgb(255,255,255)" fill-opacity="0" />
	<g id="组合 5582">
		<rect id="矩形备份-19" width="64.000000" height="64.000000" x="0.000000" y="0.000000" rx="16.000000" fill="url(#paint_linear_7)" />
		<g id="组合 16556">
			<g id="其它通道 Others 1" customFrame="url(#clipPath_24)">
				<rect id="其它通道 Others 1" width="38.000000" height="38.000000" x="13.000000" y="13.000000" />
				<rect id="其它通道 Others" width="38.000000" height="38.000000" x="13.000000" y="13.000000" />
				<path id="减去顶层" d="M30.4467 15.5213L18.5388 22.284C17.562 22.8389 16.959 23.8721 16.959 24.9912L16.959 38.481C16.959 39.6 17.562 40.6332 18.5388 41.1881L30.4467 47.9509C31.4096 48.4979 32.5917 48.4979 33.5546 47.9509L45.4625 41.1881C46.4393 40.6332 47.0423 39.6 47.0423 38.481L47.0423 24.9912C47.0423 23.8721 46.4393 22.8389 45.4625 22.284L33.5546 15.5213C32.5917 14.9743 31.4096 14.9743 30.4467 15.5213ZM25.1507 29.825C24.0889 29.825 23.2284 30.6809 23.2284 31.7369C23.2284 32.7928 24.0889 33.6489 25.1507 33.6489C26.2122 33.6489 27.0727 32.7928 27.0727 31.7369C27.0727 30.6809 26.2122 29.825 25.1507 29.825ZM30.0812 31.7369C30.0812 30.6809 30.9417 29.825 32.0036 29.825C33.0651 29.825 33.9256 30.6809 33.9256 31.7369C33.9256 32.7928 33.0651 33.6489 32.0036 33.6489C30.9417 33.6489 30.0812 32.7928 30.0812 31.7369ZM38.8573 29.825C37.7954 29.825 36.9348 30.6809 36.9348 31.7369C36.9348 32.7928 37.7954 33.6489 38.8573 33.6489C39.9187 33.6489 40.7792 32.7928 40.7792 31.7369C40.7792 30.6809 39.9187 29.825 38.8573 29.825Z" fill="rgb(255,255,255)" fill-rule="evenodd" />
			</g>
		</g>
	</g>
</svg>
