<svg viewBox="0 0 32 32" xmlns="http://www.w3.org/2000/svg" xmlns:xlink="http://www.w3.org/1999/xlink" width="32.000000" height="32.000000" fill="none">
	<defs>
		<linearGradient id="paint_linear_11" x1="0" x2="31.9999962" y1="0" y2="31.9999962" gradientUnits="userSpaceOnUse">
			<stop stop-color="rgb(123,228,11)" offset="0.00499924878" stop-opacity="1" />
			<stop stop-color="rgb(99,192,0)" offset="0.501534343" stop-opacity="1" />
			<stop stop-color="rgb(107,199,10)" offset="1" stop-opacity="1" />
		</linearGradient>
		<clipPath id="clipPath_29">
			<rect width="20.000000" height="20.000000" x="6.000000" y="6.000000" fill="rgb(255,255,255)" />
		</clipPath>
	</defs>
	<rect id="7_icon_3" width="32.000000" height="32.000000" x="0.000000" y="0.000000" />
	<g id="组合 14736">
		<rect id="矩形 7924" width="32.000000" height="32.000000" x="0.000000" y="0.000000" rx="8.000000" fill="url(#paint_linear_11)" />
		<g id="客户自建容器 1" customFrame="url(#clipPath_29)">
			<rect id="客户自建容器 1" width="20.000000" height="20.000000" x="6.000000" y="6.000000" />
			<rect id="客户自建容器" width="20.000000" height="20.000000" x="6.000000" y="6.000000" />
			<path id="减去顶层" d="M16.8334 6.4811L23.827 10.5189C24.3427 10.8166 24.6603 11.3668 24.6603 11.9622L24.6603 20.0377C24.6603 20.6332 24.3427 21.1834 23.827 21.4811L16.8334 25.5189C16.3178 25.8166 15.6824 25.8166 15.1668 25.5189L8.17318 21.4811C7.65751 21.1834 7.33984 20.6332 7.33984 20.0377L7.33984 11.9622C7.33984 11.3668 7.65751 10.8166 8.17318 10.5189L15.1668 6.4811C15.6824 6.18338 16.3178 6.18338 16.8334 6.4811ZM9.07625 11.5098C9.13875 11.3973 9.23125 11.3048 9.34375 11.2423L15.1938 7.94727C15.6213 7.70727 16.1414 7.70727 16.5664 7.94977L22.329 11.2323C22.6615 11.4223 22.779 11.8473 22.589 12.1823C22.524 12.2948 22.429 12.3873 22.314 12.4498L16.3964 15.6374C15.9764 15.8624 15.4738 15.8599 15.0588 15.6299L9.34625 12.4573C9.01124 12.2698 8.88874 11.8448 9.07625 11.5098Z" fill="rgb(255,255,255)" fill-rule="evenodd" />
		</g>
	</g>
</svg>
