<svg viewBox="0 0 64 64" xmlns="http://www.w3.org/2000/svg" xmlns:xlink="http://www.w3.org/1999/xlink" width="64.000000" height="64.000000" fill="none">
	<defs>
		<linearGradient id="paint_linear_5" x1="0" x2="63.9999924" y1="0" y2="63.9999924" gradientUnits="userSpaceOnUse">
			<stop stop-color="rgb(19,188,255)" offset="0.00499924878" stop-opacity="1" />
			<stop stop-color="rgb(0,154,220)" offset="0.501534343" stop-opacity="1" />
			<stop stop-color="rgb(15,167,227)" offset="1" stop-opacity="1" />
		</linearGradient>
		<clipPath id="clipPath_21">
			<rect width="38.000000" height="38.000000" x="13.000000" y="13.000000" fill="rgb(255,255,255)" />
		</clipPath>
	</defs>
	<rect id="8_icon_4" width="64.000000" height="64.000000" x="0.000000" y="0.000000" fill="rgb(255,255,255)" fill-opacity="0" />
	<g id="组合 5582">
		<rect id="矩形备份-19" width="64.000000" height="64.000000" x="0.000000" y="0.000000" rx="16.000000" fill="url(#paint_linear_5)" />
		<g id="组合 16557">
			<g id="代理 1" customFrame="url(#clipPath_21)">
				<rect id="代理 1" width="38.000000" height="38.000000" x="13.000000" y="13.000000" />
				<rect id="代理" width="38.000000" height="38.000000" x="13.000000" y="13.000000" />
				<path id="减去顶层" d="M19.3327 17.222L44.666 17.222C46.4148 17.222 47.8327 18.6398 47.8327 20.3887L47.8327 24.611C47.8327 26.3598 46.4148 27.7776 44.666 27.7776L25.666 27.7777L25.666 29.8888C25.666 30.4453 26.1755 30.9041 26.7217 30.9444L37.277 30.9444C39.565 30.9444 41.4279 32.7641 41.4975 35.0351L41.4994 35.1667L41.4994 37.2777L44.666 37.2777C46.4148 37.2777 47.8327 38.6955 47.8327 40.4444L47.8327 44.6667C47.8327 46.4155 46.4148 47.8333 44.666 47.8333L19.3327 47.8333C17.5839 47.8333 16.166 46.4155 16.166 44.6667L16.166 40.4444C16.166 38.6955 17.5839 37.2777 19.3327 37.2777L38.3327 37.2777L38.3327 35.1667C38.3327 34.6101 37.8232 34.1513 37.277 34.111L26.7217 34.111C24.4337 34.111 22.5708 32.2914 22.5012 30.0203L22.4993 29.8888L22.4993 27.7776L19.3327 27.7776C17.5839 27.7776 16.166 26.3598 16.166 24.611L16.166 20.3887C16.166 18.6398 17.5839 17.222 19.3327 17.222ZM38.3 21.4C38.6866 21.4 39 21.7134 39 22.1C39 22.4866 38.6866 22.8 38.3 22.8L25.7 22.8C25.3134 22.8 25 22.4866 25 22.1C25 21.7134 25.3134 21.4 25.7 21.4L38.3 21.4ZM39 42.7C39 42.3134 38.6866 42 38.3 42L25.7 42C25.3134 42 25 42.3134 25 42.7C25 43.0866 25.3134 43.4 25.7 43.4L38.3 43.4C38.6866 43.4 39 43.0866 39 42.7Z" fill="rgb(255,255,255)" fill-rule="evenodd" />
			</g>
		</g>
	</g>
</svg>
